# xmcd CD database file
#
# Track frame offsets:
#	150
#	15017
#	37628
#	48655
#	60778
#	74442
#	95453
#	108730
#	127206
#	141177
#	158401
#	173934
#	188683
#
# Disc length: 2719 seconds
#
# Revision: 0
# Processed by: cddbd v1.5.2PL0 Copyright (c) Steve Scherf et al.
# Submitted via: CdAid (MTCDDB.DLL V2003.12.21)
#
DISCID=a20a9d0d
DTITLE=Robério - Todo Romantismo Volume 7
DYEAR=1998
DGENRE=Country
TTITLE0=Amor, Amor, Amor
TTITLE1=Quero Que Vá Tudo Para o Inferno
TTITLE2=Mon Amour Meu Bem Ma Femme
TTITLE3=Diana
TTITLE4=Tanto Amor
TTITLE5=Estou Apaixonado (Estoy Enamorado)
TTITLE6=Medo da Chuva
TTITLE7=Coração de Papel
TTITLE8=Esqueça (Forget Him)
TTITLE9=Sem Saída
TTITLE10=Eu Ainda Te Amo
TTITLE11=Eu Canto Porque Sou Apaixonado
TTITLE12=Namorada de Um Amigo Meu
EXTD=ID3G:   2 YEAR: 1998
EXTT0=
EXTT1=
EXTT2=
EXTT3=
EXTT4=
EXTT5=
EXTT6=
EXTT7=
EXTT8=
EXTT9=
EXTT10=
EXTT11=
EXTT12=
PLAYORDER=
